<svg xmlns="http://www.w3.org/2000/svg" xmlns:xlink="http://www.w3.org/1999/xlink" width="170" height="108" viewBox="0 0 170 108">
  <defs>
    <rect id="background-10-a" width="170" height="108" x="0" y="0" rx="22"/>
  </defs>
  <g fill="none" fill-rule="evenodd">
    <mask id="background-10-b" fill="#fff">
      <use xlink:href="#background-10-a"/>
    </mask>
    <path fill="#FFF" fill-opacity=".25" d="M90,103.534189 C143.764257,90.4747318 146.107708,68.0045615 177.5,69.0341885 C197.223798,69.6811038 208.709123,82.5144372 211.955977,107.534189 L211.955977,122.131895 L19,122.131895 L19,107.534189 C49.3428378,108.994551 73.0095045,107.661217 90,103.534189 Z" mask="url(#background-10-b)"/>
    <path fill="#FFF" fill-opacity=".15" d="M145.198328,79.069199 C133.398972,86.4551848 119.373885,96.399207 90,103.534189 C73.0095045,107.661217 49.3428378,108.994551 19,107.534189 L19,122.131895 L181.955977,122.131895 L181.955977,122.631895 L-11,122.631895 L-11,67 C9.45005579,89.3333333 30.7833891,100.5 53,100.5 C94,100.5 92.1077084,72.970373 123.5,74 C130.765131,74.238287 137.997907,75.92802 145.198328,79.069199 Z" mask="url(#background-10-b)"/>
    <path fill="#FFF" fill-opacity=".1" d="M98.7281546,81.5567017 C87.7768629,89.3966893 79.0381389,100.5 53,100.5 C32.8373325,100.5 13.4021727,91.3026246 -5.30547958,72.9078739 C-0.024829063,55.893796 8.9103308,46.5911714 21.5,45 C46.7199803,41.8125207 49.977381,68.1152113 98.7281546,81.5567017 Z" mask="url(#background-10-b)"/>
  </g>
</svg>
