<svg xmlns="http://www.w3.org/2000/svg" xmlns:xlink="http://www.w3.org/1999/xlink" width="170" height="108" viewBox="0 0 170 108">
  <defs>
    <rect id="background-4-a" width="170" height="108" x="0" y="0" rx="22"/>
  </defs>
  <g fill="none" fill-rule="evenodd">
    <mask id="background-4-b" fill="#fff">
      <use xlink:href="#background-4-a"/>
    </mask>
    <path fill="#FFF" fill-opacity=".15" d="M-9.58594882,70.1232157 C-2.73912317,51.2228034 8.78952644,41.1817315 25,40 C50.4328554,38.1459637 43.7109744,67.8045774 90,64 C120.85935,61.463615 147.85935,49.463615 171,28 L171.743994,81.3267363 C150.648747,72.162756 131.292838,67.414621 113.676266,67.0823311 C82.2677466,66.4898927 58.0279391,90.7500678 20.0612857,83.8931251 C7.41626843,81.60938 -2.46614309,77.0194102 -9.58594882,70.1232157 Z" mask="url(#background-4-b)"/>
    <path fill="#FFF" fill-opacity=".25" d="M-22.6654958,42.4584158 C-19.4920771,65.5102602 -5.24981654,79.3218299 20.0612857,83.8931251 C58.0279391,90.7500678 82.2677466,66.4898927 113.676266,67.0823311 C134.61528,67.47729 158.011566,74.1107962 183.865127,86.9828498 L183.865127,132.80023 L-22.6654958,132.98602 L-22.6654958,42.4584158 Z" mask="url(#background-4-b)"/>
  </g>
</svg>
