<svg xmlns="http://www.w3.org/2000/svg" xmlns:xlink="http://www.w3.org/1999/xlink" width="170" height="108" viewBox="0 0 170 108">
  <defs>
    <rect id="background-5-a" width="170" height="108" x="0" y="0" rx="22"/>
  </defs>
  <g fill="none" fill-rule="evenodd">
    <mask id="background-5-b" fill="#fff">
      <use xlink:href="#background-5-a"/>
    </mask>
    <path fill="#FFF" fill-opacity=".25" d="M-2.51886791,52.3348864 C-0.013767272,77.2938605 6.20806468,90.9743886 16.1466279,93.3764706 C31.0544728,96.9795936 39.3040754,65.338063 57.6466279,66.8764706 C75.9891805,68.4148782 67.6509311,104.430912 93.6466279,99.8764706 C119.642325,95.3220295 122.914464,54.9800158 140.646628,52.3348864 C152.46807,50.5714668 166.96807,61.9186616 184.146628,86.3764706 L184.011755,142.676701 L-2.51886791,142.862491 L-2.51886791,52.3348864 Z" mask="url(#background-5-b)"/>
    <path fill="#FFF" fill-opacity=".15" d="M-0.416091605,66.7295773 C3.24730447,64.0347171 7.29472131,62.7475506 11.7261589,62.8680779 C23.7351967,63.1947025 23.7449843,76.6813779 32.4949215,84.507911 C27.3938202,90.2785095 22.3459052,94.874793 16.1466279,93.3764706 C8.32185312,91.4852767 2.8009466,82.6029789 -0.416091605,66.7295773 Z M73.1173525,86.5002521 C82.9971955,82.7512768 91.611416,76.0817569 104.816628,66.7622487 C127.574601,50.7009307 121.465542,31.6876088 136.422109,27.1725583 C146.393153,24.1625246 160.121377,30.034519 177.60678,44.7885416 L190.585829,118.328694 L184.06733,119.478082 L184.146628,86.3764706 C166.96807,61.9186616 152.46807,50.5714668 140.646628,52.3348864 C122.914464,54.9800158 119.642325,95.3220295 93.6466279,99.8764706 C81.0714957,102.079631 76.5306241,94.7891625 73.1173525,86.5002521 Z" mask="url(#background-5-b)"/>
  </g>
</svg>
