<svg xmlns="http://www.w3.org/2000/svg" xmlns:xlink="http://www.w3.org/1999/xlink" width="170" height="108" viewBox="0 0 170 108">
  <defs>
    <rect id="background-8-a" width="170" height="108" x="0" y="0" rx="22"/>
  </defs>
  <g fill="none" fill-rule="evenodd">
    <mask id="background-8-b" fill="#fff">
      <use xlink:href="#background-8-a"/>
    </mask>
    <path fill="#FFF" fill-opacity=".15" d="M-20.4543759,53.0422891 L-20.4543759,19.5 C-14.578934,40.2295483 -1.74560065,56.7744533 18.0456241,69.134715 C35.108787,79.7912137 57.3928024,82.8985051 83.0456241,77.8937824 C119.392802,70.8026502 117.12815,44.9430052 142.045624,44.9430052 C145.113318,44.9430052 148.04214,45.4422878 150.832089,46.4408531 C138.127763,59.8079527 127.431294,79.6522519 94.1297637,87.0259067 C57.3476379,95.1702381 25.3958524,90.1136521 0.929950996,72.7720207 C-7.50048526,66.7964584 -14.6285942,60.2198812 -20.4543759,53.0422891 Z" mask="url(#background-8-b)"/>
    <path fill="#FFF" fill-opacity=".25" d="M227.477188,87.0259067 L227.477188,123 L-39.9345823,123 L-39.9345823,-8 C-41.0690745,25.7337991 -27.4475634,52.657806 0.929950996,72.7720207 C25.3958524,90.1136521 57.3476379,95.1702381 94.1297637,87.0259067 C146.245921,75.4863003 142.998765,33.4041451 178.726517,33.4041451 C199.357157,33.4041451 215.607381,51.2780656 227.477188,87.0259067 Z" mask="url(#background-8-b)"/>
  </g>
</svg>
