<svg xmlns="http://www.w3.org/2000/svg" xmlns:xlink="http://www.w3.org/1999/xlink" width="170" height="108" viewBox="0 0 170 108">
  <defs>
    <rect id="background-2-a" width="170" height="108" x="0" y="0" rx="22"/>
  </defs>
  <g fill="none" fill-rule="evenodd">
    <mask id="background-2-b" fill="#fff">
      <use xlink:href="#background-2-a"/>
    </mask>
    <path fill="#FFF" fill-opacity=".25" d="M175.867567,80.5638644 L175.752974,120.943359 L-22.1210938,120.943359 L-22.1210938,80.5638644 C-12.6703261,70.6477238 -4.5478036,66.459769 2.24647368,68 C22.4888415,72.5888504 11.9838181,87.9272454 38.7464737,94.3622581 C51.6751316,97.470921 60.3407421,86.6132989 81.6291008,87.0873512 C108.340742,87.6821699 112.689709,98.0268395 134.746474,96.5 C151.454786,95.3433974 165.161817,90.0313522 175.867567,80.5638644 Z" mask="url(#background-2-b)"/>
    <path fill="#FFF" fill-opacity=".15" d="M22.9794483,86.7858853 C38.1534764,87.9873608 40.3293847,68.4425104 63.5051722,64.1665849 C85.2322999,60.1579367 92.9288575,75.1527671 112.605017,68.9052837 C144.204999,58.8718029 145.375397,30.8471622 166.057456,31.6046565 C176.592085,31.9904944 183.097273,45.3148709 185.573021,71.5777859 L189.035998,111.159791 L175.76993,114.968429 L175.867567,80.5638644 C165.161817,90.0313522 151.454786,95.3433974 134.746474,96.5 C112.689709,98.0268395 108.340742,87.6821699 81.6291008,87.0873512 C60.3407421,86.6132989 51.6751316,97.470921 38.7464737,94.3622581 C30.7965631,92.4507222 26.1351568,89.7535509 22.9794483,86.7858853 Z" mask="url(#background-2-b)"/>
  </g>
</svg>
