<svg xmlns="http://www.w3.org/2000/svg" xmlns:xlink="http://www.w3.org/1999/xlink" width="170" height="108" viewBox="0 0 170 108">
  <defs>
    <rect id="background-9-a" width="170" height="108" x="0" y="0" rx="22"/>
  </defs>
  <g fill="none" fill-rule="evenodd">
    <mask id="background-9-b" fill="#fff">
      <use xlink:href="#background-9-a"/>
    </mask>
    <path fill="#FFF" fill-opacity=".15" d="M106.423058,77.4360662 C90.8603538,88.8915015 72.3285777,100.97791 49.5,103.097706 C21.3393974,105.712619 5.00606403,94.3792859 0.5,69.0977062 L0.188392441,110.853119 L-41,111.335112 L-41,56.8319612 C-27.3207219,27.678219 -11.8939509,14.4309255 5.28031288,17.0900806 C45.5209543,23.3206887 31.7367273,73.4038583 91.0040742,77.2706426 C95.9753245,77.5949823 101.114986,77.6501235 106.423058,77.4360662 Z M178.611295,61.8005725 C198.85292,54.5736618 220.649155,44.861767 244,32.6648883 L244,108 L192.955977,108.597325 L192.955977,69.0977062 C187.984364,66.2268681 183.202803,63.7944902 178.611295,61.8005725 Z" mask="url(#background-9-b)"/>
    <path fill="#FFF" fill-opacity=".25" d="M49.5,103.097706 C91.740904,99.1753365 119.270408,61.1292576 140.5,56.0977062 C154.653061,52.7433385 172.138387,57.0766718 192.955977,69.0977062 L192.955977,106.097706 L192.955977,136.097706 L0,136.097706 L0.5,69.0977062 C5.00606403,94.3792859 21.3393974,105.712619 49.5,103.097706 Z" mask="url(#background-9-b)"/>
  </g>
</svg>
