<svg width="20" height="20" viewBox="0 0 20 20" xmlns="http://www.w3.org/2000/svg" class="icon icon-black icon-tertiary">
    <g stroke-linecap="round" stroke-linejoin="round" fill="currentColor" fill-rule="nonzero">
        <path d="M11.305 2.259l-.66.724a.869.869 0 01-1.29.002l-.658-.726a1.869 1.869 0 00-3.25 1.344l.047.98a.87.87 0 01-.912.916l-.98-.05A1.869 1.869 0 002.258 8.7l.727.66a.87.87 0 01.001 1.292l-.727.657a1.869 1.869 0 001.35 3.251l.978-.05a.868.868 0 01.912.912l-.05.979a1.87 1.87 0 003.249 1.346l.66-.728a.87.87 0 011.29-.001l.658.728a1.87 1.87 0 003.248-1.343l-.05-.982a.869.869 0 01.912-.912l.978.05a1.869 1.869 0 001.348-3.254l-.728-.657a.87.87 0 010-1.29l.728-.657a1.87 1.87 0 00-1.345-3.254l-.979.05a.867.867 0 01-.908-.911l.05-.978a1.869 1.869 0 00-3.254-1.348zm1.72.45c.34.14.553.48.535.847l-.05.979a1.869 1.869 0 001.957 1.96l.98-.05a.869.869 0 01.624 1.513l-.728.656a1.87 1.87 0 000 2.776l.728.657a.869.869 0 01-.627 1.512l-.978-.05a1.868 1.868 0 00-1.961 1.962l.05.978a.868.868 0 01-1.51.623l-.655-.725a1.869 1.869 0 00-2.774 0l-.66.726a.868.868 0 01-1.51-.625l.05-.975a1.868 1.868 0 00-1.961-1.962l-.978.05a.868.868 0 01-.629-1.511l.727-.657a1.87 1.87 0 000-2.775l-.726-.66a.869.869 0 01.625-1.51l.976.05a1.867 1.867 0 001.963-1.966l-.047-.976a.869.869 0 011.51-.625l.657.724a1.867 1.867 0 002.774 0l.659-.724a.87.87 0 01.979-.222z"></path>
        <path d="M10 6.643a3.357 3.357 0 100 6.714 3.357 3.357 0 000-6.714zm0 1a2.357 2.357 0 110 4.714 2.357 2.357 0 010-4.714z"></path>
    </g>
</svg>